<?xml version="1.0" encoding="UTF-8"?>
<!-- Generator: Adobe Illustrator 18.1.1, SVG Export Plug-In . SVG Version: 6.00 Build 0)  -->
<svg version="1.1" id="iconMenu" xmlns="http://www.w3.org/2000/svg" xmlns:xlink="http://www.w3.org/1999/xlink" x="0px" y="0px" viewBox="0 0 24 21" enable-background="new 0 0 24 21" xml:space="preserve" class="iconGraphic">

<g>
<path fill="#00ADEF" d="M15.5,16H8.6c-0.2,0.1-0.4,0.4-0.4,0.4l-0.9,1.2h9.5l-0.9-1.2C15.9,16.4,15.7,16.1,15.5,16z M23.9,10.3  c-0.2-0.6-1.2-2-1.2-2s-0.3-0.4-0.6-1c0.4,0,0.9-0.1,0.9-0.1c0-0.1,0-1-0.2-1.2c-0.2-0.2-1.3-0.3-1.7-0.4c-0.7-1.1-1.5-2.2-1.8-2.6  c-0.7-0.8-1.4-0.9-1.4-0.9S15.5,2,11.9,2C8.2,2,6.2,2.2,6.2,2.2S5.5,2.2,4.8,3C4.5,3.4,3.7,4.5,3,5.7C2.6,5.7,1.5,5.9,1.3,6  C1.1,6.2,1,7.1,1.1,7.2c0,0,0.4,0.1,0.9,0.1c-0.4,0.6-0.6,1-0.6,1s-1.1,1.3-1.3,2c-0.2,0.5,0,5,0.1,6.4v1.9c0,0.3,0.2,0.5,0.5,0.5  h2.1c0.3,0,0.5-0.2,0.5-0.5v-1.4h2.9l1.1-1.6c0,0,0.4-0.5,0.7-0.5c0.3-0.1,8-0.1,8.3,0c0.3,0.1,0.7,0.5,0.7,0.5l1.1,1.6h2.8v1.4  c0,0.3,0.2,0.5,0.5,0.5h2.1c0.3,0,0.5-0.2,0.5-0.5v-1.5C23.8,16.6,24.1,10.9,23.9,10.3z M2.4,12c0,0-0.5-0.1-0.6-0.4  c-0.1-0.3,0-1.4,0-1.4S2,9.7,2.4,9.5c0.4-0.2,0.8,0,0.8,0L5,10.6l0.4,1.9L2.4,12z M12,13.5C12,13.5,12,13.5,12,13.5  C12,13.5,12,13.5,12,13.5z M13.1,11.5h5.1c0,0.2-0.1,0.3-0.2,0.4l-5,0.3c-0.1,0.2-0.2,0.4-0.4,0.5l5.1-0.3c-0.1,0.2-0.3,0.3-0.4,0.4  c-0.5,0.3-5.2,0.6-5.4,0.7c-0.3,0-4.9-0.4-5.4-0.7c-0.1-0.1-0.3-0.2-0.4-0.4l5.1,0.3c-0.2-0.1-0.3-0.3-0.4-0.5L6,12  c-0.1-0.2-0.1-0.3-0.2-0.4h5.1c0.1-0.2,0.2-0.3,0.3-0.5H5.7c0,0,0-0.1,0-0.1c0.1-0.3,0.4-0.4,0.4-0.4l5.9-0.3l5.9,0.3  c0,0,0.3,0.1,0.4,0.4c0,0,0,0,0,0.1h-5.5C12.9,11.2,13,11.3,13.1,11.5z M22.2,11.5c-0.1,0.3-0.6,0.4-0.6,0.4l-3,0.5l0.4-1.9l1.8-1.1  c0,0,0.4-0.2,0.8,0c0.4,0.2,0.6,0.7,0.6,0.7S22.3,11.2,22.2,11.5z"/>
</g>

<style>
	.iconGraphic
	{
		cursor:pointer;
	}
	.iconGraphic:hover
	{
		cursor:hand;
	}
</style>

</svg>